<svg ed:hSpacing="25" xmlns:xlink="http://www.w3.org/1999/xlink" height="503" id="page300000100" width="1255" xmlns:ed="https://www.edrawsoft.com/xml/2017/SVGExtensions/" ed:vSpacing="20" ed:name="Page-1" xmlns="http://www.w3.org/2000/svg" viewBox="0 0 1255 503" xmlns:ev="http://www.w3.org/2001/xml-events"><style type="text/css"><![CDATA[
g[ed\:togtopicid],g[ed\:hyperlink],g[ed\:comment],g[ed\:note] {cursor:pointer;}
g[id] {-moz-user-select: none;-ms-user-select: none;user-select: none;}
svg text::selection,svg tspan::selection{background-color: #4285f4;color: #ffffff;fill: #ffffff;}
.st1 {fill:#000000;font-family:Times New Roman;font-size:21.75pt}
.st5 {fill:#454545;font-family:Times New Roman;font-size:13.5pt}
.st4 {fill:#ffffff;font-family:Times New Roman;font-size:19.5pt;font-weight:bold}
.st3 {font-weight:bold;text-decoration:underline}
.st2 {font-weight:bold}
]]></style><defs/><rect x="0" fill="#ffffff" height="503" y="0" width="1255"/><path ed:parentid="101" stroke-width="3" fill="none" stroke-linecap="round" d="M16.9,-29.5C2.5,17.1,1.3,79.5,-36.5,79.5" id="103" ed:tosuperid="102" transform="matrix(1,0,0,1,557.72,368.12)" stroke="#2f80ed" stroke-linejoin="round"/><path ed:parentid="101" stroke-width="3" fill="none" stroke-linecap="round" d="M63,2.9C75,3.4,86.7,3.7,98.3,3.7" id="107" ed:tosuperid="106" transform="matrix(1,0,0,1,692.58,292.34)" stroke="#eb5757" stroke-linejoin="round"/><path ed:parentid="101" stroke-width="3" fill="none" stroke-linecap="round" d="M14.8,63C1.9,-3.6,5.6,-113,-14.2,-113" id="111" ed:tosuperid="110" transform="matrix(1,0,0,1,580.08,175.68)" stroke="#27ae60" stroke-linejoin="round"/><path ed:parentid="102" stroke-width="2" fill="none" stroke-linecap="round" d="M16.6,15.9L5.6,15.9C5.6,3.2,-3.3,-15.9,-16.6,-15.9" id="274" ed:tosuperid="273" transform="matrix(1,0,0,1,318.64,431.69)" stroke="#2f80ed" stroke-linejoin="round"/><path ed:parentid="101" stroke-width="3" fill="none" stroke-linecap="round" d="M-13,-28.9C-3.4,17.3,-4.9,78.9,19.7,78.9" id="366" ed:tosuperid="365" transform="matrix(1,0,0,1,614.01,367.59)" stroke="#b26f34" stroke-linejoin="round"/><path ed:parentid="102" stroke-width="2" fill="none" stroke-linecap="round" d="M5.6,0C5.6,0,-3.3,0,-16.6,0" id="408" ed:tosuperid="407" transform="matrix(1,0,0,1,318.64,447.57)" stroke="#2f80ed" stroke-linejoin="round"/><path ed:parentid="102" stroke-width="2" fill="none" stroke-linecap="round" d="M5.6,-15.9C5.6,-3.2,-3.3,15.9,-16.6,15.9" id="410" ed:tosuperid="409" transform="matrix(1,0,0,1,318.64,463.44)" stroke="#2f80ed" stroke-linejoin="round"/><path ed:parentid="106" stroke-width="2" fill="none" stroke-linecap="round" d="M-16.6,23.8L-5.6,23.8C-5.6,4.8,3.3,-23.8,16.6,-23.8" id="412" ed:tosuperid="411" transform="matrix(1,0,0,1,1039.6,272.19)" stroke="#eb5757" stroke-linejoin="round"/><path ed:parentid="106" stroke-width="2" fill="none" stroke-linecap="round" d="M-5.6,7.9C-5.6,1.6,3.3,-7.9,16.6,-7.9" id="414" ed:tosuperid="413" transform="matrix(1,0,0,1,1039.6,288.07)" stroke="#eb5757" stroke-linejoin="round"/><path ed:parentid="106" stroke-width="2" fill="none" stroke-linecap="round" d="M-5.6,-7.9C-5.6,-1.6,3.3,7.9,16.6,7.9" id="416" ed:tosuperid="415" transform="matrix(1,0,0,1,1039.6,303.94)" stroke="#eb5757" stroke-linejoin="round"/><path ed:parentid="106" stroke-width="2" fill="none" stroke-linecap="round" d="M-5.6,-23.8C-5.6,-4.8,3.3,23.8,16.6,23.8" id="418" ed:tosuperid="417" transform="matrix(1,0,0,1,1039.6,319.82)" stroke="#eb5757" stroke-linejoin="round"/><path ed:parentid="110" stroke-width="2" fill="none" stroke-linecap="round" d="M16.6,7.9L5.6,7.9C5.6,1.6,-3.3,-7.9,-16.6,-7.9" id="420" ed:tosuperid="419" transform="matrix(1,0,0,1,244.75,54.76)" stroke="#27ae60" stroke-linejoin="round"/><path ed:parentid="110" stroke-width="2" fill="none" stroke-linecap="round" d="M5.6,-7.9C5.6,-1.6,-3.3,7.9,-16.6,7.9" id="422" ed:tosuperid="421" transform="matrix(1,0,0,1,244.75,70.64)" stroke="#27ae60" stroke-linejoin="round"/><path ed:parentid="365" stroke-width="2" fill="none" stroke-linecap="round" d="M-16.6,7.9L-5.6,7.9C-5.6,1.6,3.3,-7.9,16.6,-7.9" id="434" ed:tosuperid="433" transform="matrix(1,0,0,1,924.58,438.58)" stroke="#b26f34" stroke-linejoin="round"/><path ed:parentid="365" stroke-width="2" fill="none" stroke-linecap="round" d="M-5.6,-7.9C-5.6,-1.6,3.3,7.9,16.6,7.9" id="436" ed:tosuperid="435" transform="matrix(1,0,0,1,924.58,454.46)" stroke="#b26f34" stroke-linejoin="round"/><path ed:parentid="496" stroke-width="2" fill="none" stroke-linecap="round" d="M-16.6,31.8L-5.6,31.8C-5.6,6.4,3.3,-31.8,16.6,-31.8" id="502" ed:tosuperid="497" transform="matrix(1,0,0,1,890.81,78.5)" stroke="#9b51e0" stroke-linejoin="round"/><path ed:parentid="496" stroke-width="2" fill="none" stroke-linecap="round" d="M-5.6,15.9C-5.6,3.2,3.3,-15.9,16.6,-15.9" id="503" ed:tosuperid="498" transform="matrix(1,0,0,1,890.81,94.38)" stroke="#9b51e0" stroke-linejoin="round"/><path ed:parentid="496" stroke-width="2" fill="none" stroke-linecap="round" d="M-5.6,0C-5.6,0,3.3,0,16.6,0" id="504" ed:tosuperid="499" transform="matrix(1,0,0,1,890.81,110.25)" stroke="#9b51e0" stroke-linejoin="round"/><path ed:parentid="496" stroke-width="2" fill="none" stroke-linecap="round" d="M-5.6,-15.9C-5.6,-3.2,3.3,15.9,16.6,15.9" id="505" ed:tosuperid="500" transform="matrix(1,0,0,1,890.81,126.13)" stroke="#9b51e0" stroke-linejoin="round"/><path ed:parentid="496" stroke-width="2" fill="none" stroke-linecap="round" d="M-5.6,-31.8C-5.6,-6.4,3.3,31.8,16.6,31.8" id="506" ed:tosuperid="501" transform="matrix(1,0,0,1,890.81,142)" stroke="#9b51e0" stroke-linejoin="round"/><path ed:parentid="101" stroke-width="3" fill="none" stroke-linecap="round" d="M-21.1,39.2C-2,-13.6,-0.6,-89.2,46.5,-89.2" id="507" ed:tosuperid="496" transform="matrix(1,0,0,1,640.82,199.46)" stroke="#9b51e0" stroke-linejoin="round"/><path ed:parentid="523" stroke-width="2" fill="none" stroke-linecap="round" d="M16.6,79.4L5.6,79.4C5.6,15.9,-3.3,-79.4,-16.6,-79.4" id="534" ed:tosuperid="522" transform="matrix(1,0,0,1,182.48,210.58)" stroke="#f2c94c" stroke-linejoin="round"/><path ed:parentid="523" stroke-width="2" fill="none" stroke-linecap="round" d="M5.6,63.5C5.6,12.7,-3.3,-63.5,-16.6,-63.5" id="535" ed:tosuperid="524" transform="matrix(1,0,0,1,182.48,226.46)" stroke="#f2c94c" stroke-linejoin="round"/><path ed:parentid="523" stroke-width="2" fill="none" stroke-linecap="round" d="M5.6,47.6C5.6,9.5,-3.3,-47.6,-16.6,-47.6" id="536" ed:tosuperid="525" transform="matrix(1,0,0,1,182.48,242.33)" stroke="#f2c94c" stroke-linejoin="round"/><path ed:parentid="523" stroke-width="2" fill="none" stroke-linecap="round" d="M5.6,31.8C5.6,6.4,-3.3,-31.8,-16.6,-31.8" id="537" ed:tosuperid="526" transform="matrix(1,0,0,1,182.48,258.21)" stroke="#f2c94c" stroke-linejoin="round"/><path ed:parentid="523" stroke-width="2" fill="none" stroke-linecap="round" d="M5.6,15.9C5.6,3.2,-3.3,-15.9,-16.6,-15.9" id="538" ed:tosuperid="527" transform="matrix(1,0,0,1,182.48,274.08)" stroke="#f2c94c" stroke-linejoin="round"/><path ed:parentid="523" stroke-width="2" fill="none" stroke-linecap="round" d="M5.6,0C5.6,0,-3.3,0,-16.6,0" id="539" ed:tosuperid="528" transform="matrix(1,0,0,1,182.48,289.96)" stroke="#f2c94c" stroke-linejoin="round"/><path ed:parentid="523" stroke-width="2" fill="none" stroke-linecap="round" d="M5.6,-15.9C5.6,-3.2,-3.3,15.9,-16.6,15.9" id="540" ed:tosuperid="529" transform="matrix(1,0,0,1,182.48,305.83)" stroke="#f2c94c" stroke-linejoin="round"/><path ed:parentid="523" stroke-width="2" fill="none" stroke-linecap="round" d="M5.6,-31.8C5.6,-6.4,-3.3,31.8,-16.6,31.8" id="541" ed:tosuperid="530" transform="matrix(1,0,0,1,182.48,321.71)" stroke="#f2c94c" stroke-linejoin="round"/><path ed:parentid="523" stroke-width="2" fill="none" stroke-linecap="round" d="M5.6,-47.6C5.6,-9.5,-3.3,47.6,-16.6,47.6" id="542" ed:tosuperid="531" transform="matrix(1,0,0,1,182.48,337.58)" stroke="#f2c94c" stroke-linejoin="round"/><path ed:parentid="523" stroke-width="2" fill="none" stroke-linecap="round" d="M5.6,-63.5C5.6,-12.7,-3.3,63.5,-16.6,63.5" id="543" ed:tosuperid="532" transform="matrix(1,0,0,1,182.48,353.46)" stroke="#f2c94c" stroke-linejoin="round"/><path ed:parentid="523" stroke-width="2" fill="none" stroke-linecap="round" d="M5.6,-79.4C5.6,-15.9,-3.3,79.4,-16.6,79.4" id="544" ed:tosuperid="533" transform="matrix(1,0,0,1,182.48,369.33)" stroke="#f2c94c" stroke-linejoin="round"/><path ed:parentid="101" stroke-width="3" fill="none" stroke-linecap="round" d="M-43.4,0.3C-69.9,0.5,-94.1,0.6,-118.3,0.6" id="545" ed:tosuperid="523" transform="matrix(1,0,0,1,475.93,289.31)" stroke="#f2c94c" stroke-linejoin="round"/><g ed:topictype="mainidea" id="101" ed:width="323.51" ed:layout="map" transform="matrix(1,0,0,1,432.52,238.67)" ed:height="100"><path stroke-width="3" fill="none" d="M50,0L273.5,0C301.1,0,323.5,22.4,323.5,50C323.5,77.6,301.1,100,273.5,100L50,100C22.4,100,0,77.6,0,50C0,22.4,22.4,0,50,0z" stroke="#219653" stroke-linejoin="round"/><text class="st1"><tspan x="118" textLength="86" y="43" style="white-space:pre" class="st2">SATIN</tspan><tspan x="41" textLength="54" y="77" style="white-space:pre" class="st3">SAT</tspan><tspan x="95.18" textLength="67" style="white-space:pre" class="st2">ellite </tspan><tspan x="162.18" textLength="11" style="white-space:pre" class="st3">I</tspan><tspan x="173.18" textLength="66" style="white-space:pre" class="st2">mage</tspan><tspan x="239.18" textLength="21" style="white-space:pre" class="st3">N</tspan><tspan x="260.18" textLength="23" style="white-space:pre" class="st2">et</tspan></text></g><g ed:parentid="101" id="102" ed:width="185.9625" ed:layout="leftmap" transform="matrix(1,0,0,1,335.21,423.57)" ed:height="48"><path fill="#2f80ed" stroke-width="3" d="M24,0L162,0C175.2,0,186,10.7,186,24C186,37.3,175.2,48,162,48L24,48C10.7,48,0,37.3,0,24C0,10.7,10.7,0,24,0z" stroke="#2f80ed" stroke-linejoin="round"/><text class="st4"><tspan x="25" textLength="134" y="32" style="white-space:pre">Land Cover</tspan></text></g><g ed:parentid="101" id="106" ed:width="232.134375" ed:layout="rightmap" transform="matrix(1,0,0,1,790.89,272.01)" ed:height="48"><path fill="#eb5757" stroke-width="3" d="M24,0L208.1,0C221.4,0,232.1,10.7,232.1,24C232.1,37.3,221.4,48,208.1,48L24,48C10.7,48,0,37.3,0,24C0,10.7,10.7,0,24,0z" stroke="#eb5757" stroke-linejoin="round"/><text class="st4"><tspan x="25" textLength="180" y="32" style="white-space:pre">Complex Scenes</tspan></text></g><g ed:parentid="101" id="110" ed:width="304.55625" ed:layout="leftmap" transform="matrix(1,0,0,1,261.33,38.7)" ed:height="48"><path fill="#27ae60" stroke-width="3" d="M24,0L280.6,0C293.8,0,304.6,10.7,304.6,24C304.6,37.3,293.8,48,280.6,48L24,48C10.7,48,0,37.3,0,24C0,10.7,10.7,0,24,0z" stroke="#27ae60" stroke-linejoin="round"/><text class="st4"><tspan x="25" textLength="252" y="32" style="white-space:pre">Hierarchical Land Use</tspan></text></g><g ed:parentid="102" id="273" ed:width="63.296875" ed:layout="leftmap" transform="matrix(1,0,0,1,238.77,389.07)" ed:height="26.75"><path stroke-width="2" fill="none" d="M0,26.8L63.3,26.8" stroke="#2f80ed" stroke-linejoin="round"/><text class="st5"><tspan x="8" textLength="45" y="18.525" style="white-space:pre">SAT-4</tspan></text></g><g ed:parentid="101" id="365" ed:width="274.24375" ed:layout="rightmap" transform="matrix(1,0,0,1,633.76,422.52)" ed:height="48"><path fill="#b26f34" stroke-width="3" d="M24,0L250.2,0C263.5,0,274.2,10.7,274.2,24C274.2,37.3,263.5,48,250.2,48L24,48C10.7,48,0,37.3,0,24C0,10.7,10.7,0,24,0z" stroke="#b26f34" stroke-linejoin="round"/><text class="st4"><tspan x="25" textLength="222" y="32" style="white-space:pre">False Colour Scenes</tspan></text></g><g ed:parentid="102" id="407" ed:width="63.296875" ed:layout="leftmap" transform="matrix(1,0,0,1,238.77,420.82)" ed:height="26.75"><path stroke-width="2" fill="none" d="M0,26.8L63.3,26.8" stroke="#2f80ed" stroke-linejoin="round"/><text class="st5"><tspan x="8" textLength="45" y="18.525" style="white-space:pre">SAT-6</tspan></text></g><g ed:parentid="102" id="409" ed:width="104.921875" ed:layout="leftmap" transform="matrix(1,0,0,1,197.14,452.57)" ed:height="26.75"><path stroke-width="2" fill="none" d="M0,26.8L104.9,26.8" stroke="#2f80ed" stroke-linejoin="round"/><text class="st5"><tspan x="8" textLength="87" y="18.525" style="white-space:pre">NASC-TG2</tspan></text></g><g ed:parentid="106" id="411" ed:width="176.359375" ed:layout="rightmap" transform="matrix(1,0,0,1,1056.18,221.63)" ed:height="26.75"><path stroke-width="2" fill="none" d="M0,26.8L176.4,26.8" stroke="#eb5757" stroke-linejoin="round"/><text class="st5"><tspan x="8" textLength="158" y="18.525" style="white-space:pre">UC Merced Land Use</tspan></text></g><g ed:parentid="106" id="413" ed:width="92.96875" ed:layout="rightmap" transform="matrix(1,0,0,1,1056.18,253.38)" ed:height="26.75"><path stroke-width="2" fill="none" d="M0,26.8L93,26.8" stroke="#eb5757" stroke-linejoin="round"/><text class="st5"><tspan x="8" textLength="75" y="18.525" style="white-space:pre">MLRSNet</tspan></text></g><g ed:parentid="106" id="415" ed:width="49.953125" ed:layout="rightmap" transform="matrix(1,0,0,1,1056.18,285.13)" ed:height="26.75"><path stroke-width="2" fill="none" d="M0,26.8L50,26.8" stroke="#eb5757" stroke-linejoin="round"/><text class="st5"><tspan x="8" textLength="32" y="18.525" style="white-space:pre">AID</tspan></text></g><g ed:parentid="106" id="417" ed:width="100.953125" ed:layout="rightmap" transform="matrix(1,0,0,1,1056.18,316.88)" ed:height="26.75"><path stroke-width="2" fill="none" d="M0,26.8L101,26.8" stroke="#eb5757" stroke-linejoin="round"/><text class="st5"><tspan x="8" textLength="83" y="18.525" style="white-space:pre">MultiScene</tspan></text></g><g ed:parentid="110" id="419" ed:width="102.96875" ed:layout="leftmap" transform="matrix(1,0,0,1,125.21,20.08)" ed:height="26.75"><path stroke-width="2" fill="none" d="M0,26.8L103,26.8" stroke="#27ae60" stroke-linejoin="round"/><text class="st5"><tspan x="8" textLength="85" y="18.525" style="white-space:pre">RSI-CB256</tspan></text></g><g ed:parentid="110" id="421" ed:width="109.9375" ed:layout="leftmap" transform="matrix(1,0,0,1,118.24,51.83)" ed:height="26.75"><path stroke-width="2" fill="none" d="M0,26.8L109.9,26.8" stroke="#27ae60" stroke-linejoin="round"/><text class="st5"><tspan x="8" textLength="92" y="18.525" style="white-space:pre">Million-AID</tspan></text></g><g ed:parentid="365" id="433" ed:width="191.5" ed:layout="rightmap" transform="matrix(1,0,0,1,941.15,403.89)" ed:height="26.75"><path stroke-width="2" fill="none" d="M0,26.8L191.5,26.8" stroke="#b26f34" stroke-linejoin="round"/><text class="st5"><tspan x="8" textLength="174" y="18.525" style="white-space:pre">Brazilian Coffee Scenes</tspan></text></g><g ed:parentid="365" id="435" ed:width="267.765625" ed:layout="rightmap" transform="matrix(1,0,0,1,941.15,435.64)" ed:height="26.75"><path stroke-width="2" fill="none" d="M0,26.8L267.8,26.8" stroke="#b26f34" stroke-linejoin="round"/><text class="st5"><tspan x="8" textLength="250" y="18.525" style="white-space:pre">Brazilian Cerrado-Savanna Scenes</tspan></text></g><g ed:parentid="101" id="496" ed:width="186.86875" ed:layout="rightmap" transform="matrix(1,0,0,1,687.36,86.25)" ed:height="48"><path fill="#9b51e0" stroke-width="3" d="M24,0L162.9,0C176.1,0,186.9,10.7,186.9,24C186.9,37.3,176.1,48,162.9,48L24,48C10.7,48,0,37.3,0,24C0,10.7,10.7,0,24,0z" stroke="#9b51e0" stroke-linejoin="round"/><text class="st4"><tspan x="25" textLength="134" y="32" style="white-space:pre">Rare Scenes</tspan></text></g><g ed:parentid="496" id="497" ed:width="230.34375" ed:layout="rightmap" transform="matrix(1,0,0,1,907.38,20)" ed:height="26.75"><path stroke-width="2" fill="none" d="M0,26.8L230.3,26.8" stroke="#9b51e0" stroke-linejoin="round"/><text class="st5"><tspan x="8" textLength="212" y="18.525" style="white-space:pre">Airbus Wind Turbine Patches</tspan></text></g><g ed:parentid="496" id="498" ed:width="144.953125" ed:layout="rightmap" transform="matrix(1,0,0,1,907.38,51.75)" ed:height="26.75"><path stroke-width="2" fill="none" d="M0,26.8L145,26.8" stroke="#9b51e0" stroke-linejoin="round"/><text class="st5"><tspan x="8" textLength="127" y="18.525" style="white-space:pre">UTSC_SmokeRS</tspan></text></g><g ed:parentid="496" id="499" ed:width="157.453125" ed:layout="rightmap" transform="matrix(1,0,0,1,907.38,83.5)" ed:height="26.75"><path stroke-width="2" fill="none" d="M0,26.8L157.5,26.8" stroke="#9b51e0" stroke-linejoin="round"/><text class="st5"><tspan x="8" textLength="139" y="18.525" style="white-space:pre">Canadian Cropland</tspan></text></g><g ed:parentid="496" id="500" ed:width="196.40625" ed:layout="rightmap" transform="matrix(1,0,0,1,907.38,115.25)" ed:height="26.75"><path stroke-width="2" fill="none" d="M0,26.8L196.4,26.8" stroke="#9b51e0" stroke-linejoin="round"/><text class="st5"><tspan x="8" textLength="178" y="18.525" style="white-space:pre">Ships in Satellite Images</tspan></text></g><g ed:parentid="496" id="501" ed:width="125.40625" ed:layout="rightmap" transform="matrix(1,0,0,1,907.38,147)" ed:height="26.75"><path stroke-width="2" fill="none" d="M0,26.8L125.4,26.8" stroke="#9b51e0" stroke-linejoin="round"/><text class="st5"><tspan x="8" textLength="107" y="18.525" style="white-space:pre">Post Hurricane</tspan></text></g><g ed:parentid="523" id="522" ed:width="106.9375" ed:layout="leftmap" transform="matrix(1,0,0,1,58.97,104.46)" ed:height="26.75"><path stroke-width="2" fill="none" d="M0,26.8L106.9,26.8" stroke="#f2c94c" stroke-linejoin="round"/><text class="st5"><tspan x="8" textLength="89" y="18.525" style="white-space:pre">WHU-RS19</tspan></text></g><g ed:parentid="101" id="523" ed:width="158.540625" ed:layout="leftmap" transform="matrix(1,0,0,1,199.06,265.96)" ed:height="48"><path fill="#f2c94c" stroke-width="3" d="M24,0L134.5,0C147.8,0,158.5,10.7,158.5,24C158.5,37.3,147.8,48,134.5,48L24,48C10.7,48,0,37.3,0,24C0,10.7,10.7,0,24,0z" stroke="#f2c94c" stroke-linejoin="round"/><text class="st4"><tspan x="25" textLength="106" y="32" style="white-space:pre">Land Use</tspan></text></g><g ed:parentid="523" id="524" ed:width="89.96875" ed:layout="leftmap" transform="matrix(1,0,0,1,75.94,136.21)" ed:height="26.75"><path stroke-width="2" fill="none" d="M0,26.8L90,26.8" stroke="#f2c94c" stroke-linejoin="round"/><text class="st5"><tspan x="8" textLength="72" y="18.525" style="white-space:pre">RSS-CN7</tspan></text></g><g ed:parentid="523" id="525" ed:width="69.328125" ed:layout="leftmap" transform="matrix(1,0,0,1,96.58,167.96)" ed:height="26.75"><path stroke-width="2" fill="none" d="M0,26.8L69.3,26.8" stroke="#f2c94c" stroke-linejoin="round"/><text class="st5"><tspan x="8" textLength="51" y="18.525" style="white-space:pre">RSC11</tspan></text></g><g ed:parentid="523" id="526" ed:width="100.90625" ed:layout="leftmap" transform="matrix(1,0,0,1,65,199.71)" ed:height="26.75"><path stroke-width="2" fill="none" d="M0,26.8L100.9,26.8" stroke="#f2c94c" stroke-linejoin="round"/><text class="st5"><tspan x="8" textLength="83" y="18.525" style="white-space:pre">SIRI-WHU</tspan></text></g><g ed:parentid="523" id="527" ed:width="84.9375" ed:layout="leftmap" transform="matrix(1,0,0,1,80.97,231.46)" ed:height="26.75"><path stroke-width="2" fill="none" d="M0,26.8L84.9,26.8" stroke="#f2c94c" stroke-linejoin="round"/><text class="st5"><tspan x="8" textLength="67" y="18.525" style="white-space:pre">EuroSAT</tspan></text></g><g ed:parentid="523" id="528" ed:width="143.90625" ed:layout="leftmap" transform="matrix(1,0,0,1,22,263.21)" ed:height="26.75"><path stroke-width="2" fill="none" d="M0,26.8L143.9,26.8" stroke="#f2c94c" stroke-linejoin="round"/><text class="st5"><tspan x="8" textLength="126" y="18.525" style="white-space:pre">NWPU-RESIS45</tspan></text></g><g ed:parentid="523" id="529" ed:width="94.9375" ed:layout="leftmap" transform="matrix(1,0,0,1,70.97,294.96)" ed:height="26.75"><path stroke-width="2" fill="none" d="M0,26.8L94.9,26.8" stroke="#f2c94c" stroke-linejoin="round"/><text class="st5"><tspan x="8" textLength="77" y="18.525" style="white-space:pre">PatternNet</tspan></text></g><g ed:parentid="523" id="530" ed:width="118.9375" ed:layout="leftmap" transform="matrix(1,0,0,1,46.97,326.71)" ed:height="26.75"><path stroke-width="2" fill="none" d="M0,26.8L118.9,26.8" stroke="#f2c94c" stroke-linejoin="round"/><text class="st5"><tspan x="8" textLength="101" y="18.525" style="white-space:pre">RSC46-WHU</tspan></text></g><g ed:parentid="523" id="531" ed:width="49.953125" ed:layout="leftmap" transform="matrix(1,0,0,1,115.95,358.46)" ed:height="26.75"><path stroke-width="2" fill="none" d="M0,26.8L50,26.8" stroke="#f2c94c" stroke-linejoin="round"/><text class="st5"><tspan x="8" textLength="32" y="18.525" style="white-space:pre">GID</tspan></text></g><g ed:parentid="523" id="532" ed:width="62.984375" ed:layout="leftmap" transform="matrix(1,0,0,1,102.92,390.21)" ed:height="26.75"><path stroke-width="2" fill="none" d="M0,26.8L63,26.8" stroke="#f2c94c" stroke-linejoin="round"/><text class="st5"><tspan x="8" textLength="45" y="18.525" style="white-space:pre">CLRS</tspan></text></g><g ed:parentid="523" id="533" ed:width="100.953125" ed:layout="leftmap" transform="matrix(1,0,0,1,64.95,421.96)" ed:height="26.75"><path stroke-width="2" fill="none" d="M0,26.8L101,26.8" stroke="#f2c94c" stroke-linejoin="round"/><text class="st5"><tspan x="8" textLength="83" y="18.525" style="white-space:pre">Optimal-31</tspan></text></g></svg>